<?xml version="1.0"?>
<svg width="24" height="24" xmlns="http://www.w3.org/2000/svg" xmlns:svg="http://www.w3.org/2000/svg">
 <g class="layer">
  <title>Layer 1</title>
  <path d="m6.25,3c-1.79,0 -3.25,1.46 -3.25,3.25l0,11.5c0,1.79 1.46,3.25 3.25,3.25l11.25,0l0.5,0l0.25,-1.5l-8.75,0l-3.25,0c-0.97,0 -1.75,-0.78 -1.75,-1.75l0,-11.5c0,-0.97 0.78,-1.75 1.75,-1.75l11.5,0c0.97,0 1.75,0.78 1.75,1.75l0,3.25l0.13,0l0.38,5l1,0l0,-8.25c0,-1.79 -1.46,-3.25 -3.25,-3.25l-11.5,0z" fill="#212121" id="svg_1"/>
  <path d="m9.75,9.5l0,5l5,0.13c0.04,-4 0,-1.59 0,-3.38l0,-1.75l-5,0z" fill="#212121" id="svg_2"/>
  <line fill="none" id="svg_5" transform="matrix(1 0 0 1 0 0)" x1="9.63" x2="10.75" y1="10.94" y2="11.94"/>
  <line fill="none" id="svg_6" opacity="0.5" x1="11.88" x2="11.88" y1="12.19" y2="12.19"/>
  <path d="m17.75,21.06c1.79,0 3.25,-1.46 3.25,-3.25l0,-11.5c0,-1.79 -1.46,-3.25 -3.25,-3.25l-11.25,0l-0.5,0l-0.25,1.5l8.75,0l3.25,0c0.97,0 1.75,0.78 1.75,1.75l0,11.5c0,0.97 -0.78,1.75 -1.75,1.75l-11.5,0c-0.97,0 -1.75,-0.78 -1.75,-1.75l0,-3.25l-0.38,0.25l-0.13,-4l-1,-1.25l0,8.25c0,1.79 1.46,3.25 3.25,3.25l11.5,0z" fill="#212121" id="svg_7"/>
 </g>
</svg>