<?xml version="1.0" encoding="UTF-8" standalone="no"?>


<!-- Uploaded to: SVG Repo, www.svgrepo.com, Generator: SVG Repo Mixer Tools -->
<svg 
   xmlns:dc="http://purl.org/dc/elements/1.1/"
   xmlns:cc="http://creativecommons.org/ns#"
   xmlns:rdf="http://www.w3.org/1999/02/22-rdf-syntax-ns#"
   xmlns:svg="http://www.w3.org/2000/svg"
   xmlns="http://www.w3.org/2000/svg"
   xmlns:sodipodi="http://sodipodi.sourceforge.net/DTD/sodipodi-0.dtd"
   xmlns:inkscape="http://www.inkscape.org/namespaces/inkscape"
   width="30"
   height="30"
   viewBox="0 0 30 30"
   version="1.1"
   id="svg822"
   inkscape:version="0.92.4 (f8dce91, 2019-08-02)"
   sodipodi:docname="select-all.svg">
  <defs
     id="defs816">
    <inkscape:path-effect
       effect="copy_rotate"
       starting_point="15,304.0625"
       origin="14,304.0625"
       id="path-effect963"
       is_visible="true"
       copies_to_360="true"
       fuse_paths="false"
       starting_angle="0"
       rotation_angle="90"
       num_copies="21" />
    <inkscape:path-effect
       only_selected="false"
       apply_with_weight="true"
       apply_no_weight="true"
       helper_size="0"
       steps="2"
       weight="33.333333"
       is_visible="true"
       id="path-effect1025"
       effect="bspline" />
    <inkscape:path-effect
       only_selected="false"
       apply_with_weight="true"
       apply_no_weight="true"
       helper_size="0"
       steps="2"
       weight="33.333333"
       is_visible="true"
       id="path-effect1021"
       effect="bspline" />
  </defs>
  <sodipodi:namedview
     id="base"
     pagecolor="#ffffff"
     bordercolor="#666666"
     borderopacity="1.0"
     inkscape:pageopacity="0.0"
     inkscape:pageshadow="2"
     inkscape:zoom="17.833333"
     inkscape:cx="15"
     inkscape:cy="15"
     inkscape:document-units="px"
     inkscape:current-layer="layer1"
     showgrid="true"
     units="px"
     inkscape:window-width="1366"
     inkscape:window-height="713"
     inkscape:window-x="0"
     inkscape:window-y="0"
     inkscape:window-maximized="1"
     showguides="false"
     inkscape:guide-bbox="true">
    <sodipodi:guide
       position="21.126168,22.794393"
       orientation="1,0"
       id="guide1575"
       inkscape:locked="false" />
    <sodipodi:guide
       position="22.682243,23.285047"
       orientation="1,0"
       id="guide1635"
       inkscape:locked="false" />
    <sodipodi:guide
       position="22.682243,7.6455921"
       orientation="0,1"
       id="guide1639"
       inkscape:locked="false" />
    <sodipodi:guide
       position="18.859863,18.859863"
       orientation="1,0"
       id="guide1242"
       inkscape:locked="false" />
    <inkscape:grid
       type="xygrid"
       id="grid1103" />
  </sodipodi:namedview>
  <metadata
     id="metadata819">
    <rdf:RDF>
      <cc:Work
         rdf:about="">
        <dc:format>image/svg+xml</dc:format>
        <dc:type
           rdf:resource="http://purl.org/dc/dcmitype/StillImage" />
        <dc:title>
</dc:title>
      </cc:Work>
    </rdf:RDF>
  </metadata>
  <g
     inkscape:label="Layer 1"
     inkscape:groupmode="layer"
     id="layer1"
     transform="translate(0,-289.0625)">
    <path
       style="color:#000000;font-style:normal;font-variant:normal;font-weight:normal;font-stretch:normal;font-size:medium;line-height:normal;font-family:sans-serif;font-variant-ligatures:normal;font-variant-position:normal;font-variant-caps:normal;font-variant-numeric:normal;font-variant-alternates:normal;font-feature-settings:normal;text-indent:0;text-align:start;text-decoration:none;text-decoration-line:none;text-decoration-style:solid;text-decoration-color:#000000;letter-spacing:normal;word-spacing:normal;text-transform:none;writing-mode:lr-tb;direction:ltr;text-orientation:mixed;dominant-baseline:auto;baseline-shift:baseline;text-anchor:start;white-space:normal;shape-padding:0;clip-rule:nonzero;display:inline;overflow:visible;visibility:visible;opacity:1;isolation:auto;mix-blend-mode:normal;color-interpolation:sRGB;color-interpolation-filters:linearRGB;solid-color:#000000;solid-opacity:1;vector-effect:none;fill:#000000;fill-opacity:1;fill-rule:nonzero;stroke:none;stroke-width:1.99999988;stroke-linecap:butt;stroke-linejoin:miter;stroke-miterlimit:4;stroke-dasharray:none;stroke-dashoffset:0;stroke-opacity:1;color-rendering:auto;image-rendering:auto;shape-rendering:auto;text-rendering:auto;enable-background:accumulate"
       d="M 5 3 C 3.9092973 3 3 3.9093 3 5 L 3 6 L 5 6 L 5 5 L 6 5 L 6 3 L 5 3 z M 8 3 L 8 5 L 10 5 L 10 3 L 8 3 z M 12 3 L 12 5 L 14 5 L 14 3 L 12 3 z M 16 3 L 16 5 L 18 5 L 18 3 L 16 3 z M 20 3 L 20 5 L 22 5 L 22 3 L 20 3 z M 24 3 L 24 5 L 25 5 L 25 6 L 27 6 L 27 5 C 27 3.9093 26.090703 3 25 3 L 24 3 z M 3 8 L 3 10 L 5 10 L 5 8 L 3 8 z M 25 8 L 25 10 L 27 10 L 27 8 L 25 8 z M 11 9 C 9.9092973 9 9 9.9093 9 11 L 9 19 C 9 20.0907 9.9092973 21 11 21 L 19 21 C 20.090703 21 21 20.0907 21 19 L 21 11 C 21 9.9093 20.090703 9 19 9 L 11 9 z M 11 11 L 19 11 L 19 19 L 11 19 L 11 11 z M 3 12 L 3 14 L 5 14 L 5 12 L 3 12 z M 25 12 L 25 14 L 27 14 L 27 12 L 25 12 z M 3 16 L 3 18 L 5 18 L 5 16 L 3 16 z M 25 16 L 25 18 L 27 18 L 27 16 L 25 16 z M 3 20 L 3 22 L 5 22 L 5 20 L 3 20 z M 25 20 L 25 22 L 27 22 L 27 20 L 25 20 z M 3 24 L 3 25 C 3 26.0907 3.9092973 27 5 27 L 6 27 L 6 25 L 5 25 L 5 24 L 3 24 z M 25 24 L 25 25 L 24 25 L 24 27 L 25 27 C 26.090703 27 27 26.0907 27 25 L 27 24 L 25 24 z M 8 25 L 8 27 L 10 27 L 10 25 L 8 25 z M 12 25 L 12 27 L 14 27 L 14 25 L 12 25 z M 16 25 L 16 27 L 18 27 L 18 25 L 16 25 z M 20 25 L 20 27 L 22 27 L 22 25 L 20 25 z "
       transform="translate(0,289.0625)"
       id="rect956" />
  </g>
</svg>