<svg width="24" height="24" xmlns="http://www.w3.org/2000/svg" fill="none">
 <g>
  <title>Layer 1</title>
  <path d="m9.10395,12.77896l-2.12132,2.1213c-1.17157,1.1716 -1.17157,3.0711 0,4.2426l1.41422,1.4143c1.17157,1.1715 3.07106,1.1715 4.24261,0l2.1213,-2.1214m-7.70706,-11.9497l13.99996,14" stroke="#000000" stroke-width="2" stroke-linecap="round" stroke-linejoin="round" id="svg_1"/>
  <path fill-rule="evenodd" clip-rule="evenodd" d="m13.88946,12.23606l-2.66424,2.6642c-0.39053,0.3906 -0.39053,1.0237 0,1.4142c0.39052,0.3906 1.02364,0.3906 1.41424,0l2.6642,-2.6642l-1.4142,-1.4142zm5.6568,2.8285l-1.4142,-1.4142l0.1642,-0.1643l1.4142,-1.4142l0.7071,-0.70708c0.7811,-0.78105 0.7811,-2.04738 0,-2.82843l-1.4142,-1.41421c-0.781,-0.78105 -2.0473,-0.78105 -2.8284,0l-0.7071,0.70711l-1.4142,1.41421l-0.1642,0.16421l-1.4142,-1.41421l0.1642,-0.16421l1.4142,-1.41422l0.7071,-0.7071c1.5621,-1.5621 4.0948,-1.5621 5.6568,0l1.4143,1.41421c1.5621,1.5621 1.5621,4.09476 0,5.65682l-0.7071,0.7071l-1.4143,1.4143l-0.1642,0.1642zm-4.2426,-4.24269l0.1642,-0.16421c0.3905,-0.39053 1.0237,-0.39053 1.4142,0c0.3905,0.39052 0.3905,1.0237 0,1.4142l-0.1642,0.1642l-1.4142,-1.41419z" fill="#000000" id="svg_2"/>
 </g>

</svg>